<svg width="441" height="121" viewBox="0 0 441 121" fill="none" xmlns="http://www.w3.org/2000/svg">
<path d="M103.374 51.1115H84.5743C83.3279 51.1115 82.1324 50.6179 81.2511 49.7392C80.3697 48.8605 79.8745 47.6687 79.8745 46.4261C79.8745 45.1834 80.3697 43.9917 81.2511 43.113C82.1324 42.2343 83.3279 41.7406 84.5743 41.7406L103.374 41.7406C104.62 41.7406 105.815 42.2343 106.697 43.113C107.578 43.9917 108.073 45.1834 108.073 46.4261C108.073 47.6687 107.578 48.8605 106.697 49.7392C105.815 50.6179 104.62 51.1115 103.374 51.1115ZM56.3755 41.7406H51.6757V37.0551C51.6757 35.8125 51.1805 34.6207 50.2991 33.742C49.4178 32.8633 48.2223 32.3697 46.9759 32.3697C45.7294 32.3697 44.534 32.8633 43.6526 33.742C42.7712 34.6207 42.2761 35.8125 42.2761 37.0551V41.7406H37.5763C36.3298 41.7406 35.1344 42.2343 34.253 43.113C33.3716 43.9917 32.8765 45.1834 32.8765 46.4261C32.8765 47.6687 33.3716 48.8605 34.253 49.7392C35.1344 50.6179 36.3298 51.1115 37.5763 51.1115H42.2761V55.797C42.2761 57.0397 42.7712 58.2314 43.6526 59.1101C44.534 59.9888 45.7294 60.4825 46.9759 60.4825C48.2223 60.4825 49.4178 59.9888 50.2991 59.1101C51.1805 58.2314 51.6757 57.0397 51.6757 55.797V51.1115H56.3755C57.622 51.1115 58.8174 50.6179 59.6988 49.7392C60.5801 48.8605 61.0753 47.6687 61.0753 46.4261C61.0753 45.1834 60.5801 43.9917 59.6988 43.113C58.8174 42.2343 57.622 41.7406 56.3755 41.7406ZM123.524 114.014C122.304 114.247 121.065 114.365 119.823 114.365C114.229 114.364 108.863 112.152 104.901 108.216L104.607 107.923L80.7557 81.4499L60.2528 81.5671L36.3426 107.923L36.1076 108.216C32.1163 112.145 26.7362 114.354 21.1269 114.365C19.9042 114.367 18.6842 114.25 17.4846 114.014C14.7463 113.54 12.1289 112.532 9.78292 111.046C7.43692 109.561 5.40855 107.628 3.81441 105.358C2.22028 103.088 1.09181 100.527 0.493885 97.8211C-0.104043 95.1153 -0.159641 92.3183 0.330287 89.5909L9.90614 40.4521V40.335C11.3321 32.1905 15.5975 24.8097 21.9498 19.4948C28.302 14.1799 36.333 11.2724 44.626 11.2851L96.3239 11.1094C104.578 11.1146 112.569 14.0077 118.903 19.2843C125.237 24.5609 129.513 31.8863 130.985 39.9836C131.044 40.0421 131.044 40.0421 131.044 40.1007L140.62 89.5324H140.678C141.653 95.0458 140.394 100.719 137.178 105.309C133.962 109.898 129.052 113.029 123.524 114.014ZM96.3239 72.0204C103.179 72.0204 109.754 69.3054 114.602 64.4726C119.449 59.6397 122.173 53.085 122.173 46.2504C122.173 39.4157 119.449 32.861 114.602 28.0282C109.754 23.1954 103.179 20.4803 96.3239 20.4803L44.626 20.656C38.5793 20.64 32.7191 22.7427 28.0695 26.5966C23.4199 30.4506 20.2764 35.8107 19.1883 41.7406C19.1974 41.8418 19.177 41.9435 19.1295 42.0335L9.55366 91.2894C9.12994 93.7306 9.4935 96.2428 10.5921 98.4651C11.6907 100.687 13.4677 102.505 15.6677 103.657C17.8678 104.809 20.3775 105.236 22.8363 104.876C25.295 104.517 27.5761 103.389 29.3516 101.656L54.6718 73.7189C55.1185 73.2474 55.6552 72.8698 56.2505 72.6083C56.8458 72.3468 57.4875 72.2066 58.1379 72.1961L96.3239 72.0204ZM131.396 91.2894L126.285 64.8165C123.117 69.8917 118.703 74.0773 113.461 76.9777C108.218 79.878 102.32 81.3971 96.3239 81.3914H93.3277L111.598 101.656C113.374 103.389 115.655 104.517 118.114 104.876C120.572 105.236 123.082 104.809 125.282 103.657C127.482 102.505 129.259 100.687 130.358 98.4651C131.456 96.2428 131.82 93.7306 131.396 91.2894Z" fill="white"/>
<path d="M185.99 57.67H177.66L174.93 73H162.33L171.22 22.6H192.57C197.843 22.6 201.6 23.8133 203.84 26.24C205.473 28.1067 206.29 30.4867 206.29 33.38C206.29 34.36 206.197 35.3867 206.01 36.46L204.61 44.37C203.91 48.2433 201.857 51.44 198.45 53.96C195.043 56.4333 190.89 57.67 185.99 57.67ZM188.16 33.52H181.86L179.55 46.75H185.78C189.607 46.75 191.823 45.0467 192.43 41.64L192.92 38.77C193.013 38.35 193.06 37.79 193.06 37.09C193.06 36.39 192.71 35.62 192.01 34.78C191.31 33.94 190.027 33.52 188.16 33.52ZM228.892 58.37H207.962L209.502 49.55H230.432L228.892 58.37ZM257.319 22.6L264.809 46.75L280.909 22.6H294.139L285.249 73H272.579L277.619 44.58L266.839 61.52H257.669L252.909 44.58L247.869 73H235.269L244.159 22.6H257.319ZM309.571 73.98C299.864 73.98 295.011 70.62 295.011 63.9C295.011 62.9667 295.104 61.9633 295.291 60.89L296.761 52.21C297.554 47.73 299.607 44.3 302.921 41.92C306.281 39.4933 310.714 38.28 316.221 38.28C325.601 38.28 330.291 41.8267 330.291 48.92C330.291 49.9467 330.197 51.0667 330.011 52.28L329.171 57.25H307.821L307.541 58.86C307.447 59.42 307.401 59.9333 307.401 60.4C307.401 62.9667 308.917 64.25 311.951 64.25C313.071 64.25 314.027 63.9 314.821 63.2C315.614 62.5 316.081 61.6833 316.221 60.75L327.841 60.89C326.301 69.6167 320.211 73.98 309.571 73.98ZM317.971 52.98C318.157 52.1867 318.251 51.4633 318.251 50.81C318.251 50.11 317.947 49.41 317.341 48.71C316.734 48.01 315.754 47.66 314.401 47.66C313.094 47.66 311.881 48.1033 310.761 48.99C309.687 49.8767 308.941 51.2067 308.521 52.98H317.971ZM366.884 62.22C366.884 63.4333 367.49 64.04 368.704 64.04C369.964 64.04 371.014 63.8067 371.854 63.34L371.504 71.25C369.264 73.07 366.744 73.98 363.944 73.98C358.81 73.98 355.964 72.1133 355.404 68.38C353.07 72.1133 349.64 73.98 345.114 73.98C337.46 73.98 333.634 70.69 333.634 64.11C333.634 62.99 333.75 61.7533 333.984 60.4L335.454 52.21C336.2 48.01 337.904 44.6733 340.564 42.2C343.27 39.68 347.004 38.42 351.764 38.42C354.704 38.42 357.037 39.05 358.764 40.31L362.334 19.87H374.304L366.954 61.38C366.907 61.66 366.884 61.94 366.884 62.22ZM346.164 58.86C346.07 59.28 346.024 59.8633 346.024 60.61C346.024 61.3567 346.374 62.1033 347.074 62.85C347.774 63.55 348.94 63.9 350.574 63.9C352.254 63.9 353.7 63.2467 354.914 61.94L357.014 50.18C356.5 49.0133 355.287 48.43 353.374 48.43C349.78 48.43 347.68 50.1567 347.074 53.61L346.164 58.86ZM392.3 64.04C393.374 64.04 394.33 63.8067 395.17 63.34L394.82 71.25C392.627 73.07 390.13 73.98 387.33 73.98C383.084 73.98 380.33 73 379.07 71.04C378.23 69.7333 377.81 68.3567 377.81 66.91C377.81 65.4167 377.904 64.11 378.09 62.99L382.29 39.33H394.19L390.27 61.38C390.224 61.66 390.2 61.9167 390.2 62.15C390.2 63.41 390.9 64.04 392.3 64.04ZM383.69 27.92C383.69 24.9333 384.344 22.7633 385.65 21.41C387.004 20.01 389.08 19.31 391.88 19.31C395.8 19.31 397.76 21.0367 397.76 24.49C397.76 27.43 397.084 29.5767 395.73 30.93C394.424 32.2833 392.347 32.96 389.5 32.96C385.627 32.96 383.69 31.28 383.69 27.92ZM432.304 62.22C432.304 63.4333 432.91 64.04 434.124 64.04C435.384 64.04 436.434 63.8067 437.274 63.34L436.924 71.25C434.684 73.07 432.164 73.98 429.364 73.98C424.23 73.98 421.384 72.1133 420.824 68.38C418.49 72.1133 415.06 73.98 410.534 73.98C402.88 73.98 399.054 70.69 399.054 64.11C399.054 62.99 399.17 61.7533 399.404 60.4L400.874 52.21C401.62 48.01 403.324 44.6733 405.984 42.2C408.69 39.68 412.19 38.42 416.484 38.42C420.824 38.42 423.764 39.4233 425.304 41.43L425.654 39.33H436.294L432.374 61.38C432.327 61.66 432.304 61.94 432.304 62.22ZM411.584 58.86C411.49 59.28 411.444 59.8633 411.444 60.61C411.444 61.3567 411.794 62.1033 412.494 62.85C413.194 63.55 414.36 63.9 415.994 63.9C417.674 63.9 419.12 63.2467 420.334 61.94L422.434 50.18C421.92 49.0133 420.707 48.43 418.794 48.43C415.2 48.43 413.1 50.1567 412.494 53.61L411.584 58.86Z" fill="white"/>
<path d="M236.58 107.69C236.58 107.13 236.46 106.62 236.22 106.16C236 105.7 235.59 105.23 234.99 104.75C234.39 104.25 233.53 103.69 232.41 103.07C230.85 102.19 229.74 101.32 229.08 100.46C228.44 99.6 228.12 98.5 228.12 97.16C228.12 96.04 228.41 95.07 228.99 94.25C229.59 93.43 230.42 92.79 231.48 92.33C232.54 91.87 233.76 91.64 235.14 91.64C236.4 91.64 237.54 91.8 238.56 92.12C239.58 92.42 240.53 92.83 241.41 93.35L239.94 95.69C239.22 95.23 238.46 94.85 237.66 94.55C236.88 94.25 235.96 94.1 234.9 94.1C233.72 94.1 232.77 94.36 232.05 94.88C231.33 95.38 230.97 96.04 230.97 96.86C230.97 97.6 231.22 98.26 231.72 98.84C232.24 99.4 233.19 100.05 234.57 100.79C235.89 101.49 236.9 102.18 237.6 102.86C238.32 103.52 238.81 104.22 239.07 104.96C239.35 105.7 239.49 106.52 239.49 107.42C239.49 108.64 239.17 109.7 238.53 110.6C237.91 111.48 237.04 112.16 235.92 112.64C234.8 113.12 233.5 113.36 232.02 113.36C230.58 113.36 229.28 113.17 228.12 112.79C226.96 112.39 225.94 111.84 225.06 111.14L226.92 108.83C227.6 109.45 228.39 109.95 229.29 110.33C230.21 110.69 231.22 110.87 232.32 110.87C233.62 110.87 234.65 110.59 235.41 110.03C236.19 109.45 236.58 108.67 236.58 107.69ZM246.992 94.73C246.432 94.73 246.002 94.57 245.702 94.25C245.422 93.91 245.282 93.52 245.282 93.08C245.282 92.44 245.482 91.93 245.882 91.55C246.282 91.15 246.782 90.95 247.382 90.95C247.942 90.95 248.362 91.12 248.642 91.46C248.942 91.78 249.092 92.16 249.092 92.6C249.092 93.22 248.892 93.73 248.492 94.13C248.092 94.53 247.592 94.73 246.992 94.73ZM244.982 113H242.282L245.012 97.4H247.712L244.982 113ZM259.768 99.41C259.068 99.41 258.308 99.67 257.488 100.19C256.668 100.71 255.908 101.52 255.208 102.62C254.528 103.7 254.038 105.09 253.738 106.79L252.658 113H249.958L252.688 97.4H255.298L254.638 101C255.258 99.8 256.088 98.84 257.128 98.12C258.188 97.4 259.298 97.04 260.458 97.04C261.818 97.04 262.908 97.46 263.728 98.3C264.548 99.12 264.958 100.13 264.958 101.33C264.958 101.83 264.898 102.46 264.778 103.22L263.068 113H260.368L262.018 103.67C262.118 103.19 262.178 102.84 262.198 102.62C262.218 102.38 262.228 102.16 262.228 101.96C262.228 101.18 261.998 100.56 261.538 100.1C261.098 99.64 260.508 99.41 259.768 99.41ZM279.444 100.55C278.944 100.23 278.404 99.97 277.824 99.77C277.244 99.55 276.604 99.44 275.904 99.44C274.804 99.44 273.834 99.73 272.994 100.31C272.174 100.89 271.534 101.68 271.074 102.68C270.614 103.66 270.384 104.77 270.384 106.01C270.384 107.53 270.764 108.74 271.524 109.64C272.304 110.52 273.344 110.96 274.644 110.96C275.404 110.96 276.074 110.87 276.654 110.69C277.234 110.51 277.764 110.3 278.244 110.06L278.574 112.43C278.074 112.65 277.464 112.86 276.744 113.06C276.044 113.26 275.194 113.36 274.194 113.36C272.894 113.36 271.744 113.07 270.744 112.49C269.764 111.91 268.994 111.1 268.434 110.06C267.894 109 267.624 107.77 267.624 106.37C267.624 104.69 267.964 103.15 268.644 101.75C269.344 100.33 270.324 99.19 271.584 98.33C272.864 97.47 274.374 97.04 276.114 97.04C277.054 97.04 277.884 97.16 278.604 97.4C279.344 97.62 279.994 97.9 280.554 98.24L279.444 100.55ZM287.703 113.36C286.383 113.36 285.213 113.08 284.193 112.52C283.193 111.94 282.403 111.12 281.823 110.06C281.263 108.98 280.983 107.71 280.983 106.25C280.983 104.59 281.323 103.06 282.003 101.66C282.703 100.26 283.683 99.14 284.943 98.3C286.223 97.46 287.713 97.04 289.413 97.04C290.573 97.04 291.553 97.26 292.353 97.7C293.173 98.14 293.803 98.71 294.243 99.41C294.683 100.11 294.903 100.86 294.903 101.66C294.903 102.76 294.643 103.67 294.123 104.39C293.603 105.11 292.933 105.67 292.113 106.07C291.293 106.45 290.403 106.72 289.443 106.88C288.503 107.04 287.603 107.12 286.743 107.12C286.203 107.12 285.663 107.1 285.123 107.06C284.603 107 284.143 106.94 283.743 106.88C283.903 108.2 284.373 109.21 285.153 109.91C285.933 110.61 286.933 110.96 288.153 110.96C289.153 110.96 290.043 110.83 290.823 110.57C291.603 110.31 292.263 110.05 292.803 109.79L293.043 112.19C292.443 112.47 291.683 112.74 290.763 113C289.843 113.24 288.823 113.36 287.703 113.36ZM289.203 99.32C288.263 99.32 287.413 99.56 286.653 100.04C285.893 100.5 285.263 101.14 284.763 101.96C284.283 102.76 283.963 103.68 283.803 104.72C284.263 104.8 284.723 104.87 285.183 104.93C285.663 104.97 286.183 104.99 286.743 104.99C288.423 104.99 289.753 104.76 290.733 104.3C291.713 103.82 292.203 103.01 292.203 101.87C292.203 101.17 291.923 100.57 291.363 100.07C290.823 99.57 290.103 99.32 289.203 99.32ZM320.565 96.71C320.565 97.75 320.315 98.69 319.815 99.53C319.335 100.35 318.695 101.1 317.895 101.78C317.095 102.46 316.235 103.12 315.315 103.76C314.415 104.38 313.535 105.03 312.675 105.71C311.835 106.37 311.105 107.09 310.485 107.87C309.865 108.65 309.455 109.54 309.255 110.54H318.795L318.375 113H306.315C306.295 112.84 306.275 112.66 306.255 112.46C306.235 112.26 306.225 112.07 306.225 111.89C306.225 110.49 306.495 109.26 307.035 108.2C307.595 107.12 308.305 106.16 309.165 105.32C310.045 104.48 310.965 103.71 311.925 103.01C312.905 102.31 313.825 101.65 314.685 101.03C315.565 100.39 316.275 99.74 316.815 99.08C317.375 98.42 317.655 97.7 317.655 96.92C317.655 96.04 317.355 95.34 316.755 94.82C316.155 94.3 315.415 94.04 314.535 94.04C313.675 94.04 312.895 94.2 312.195 94.52C311.515 94.84 310.835 95.29 310.155 95.87L308.895 93.83C309.715 93.17 310.605 92.64 311.565 92.24C312.525 91.84 313.625 91.64 314.865 91.64C316.005 91.64 316.995 91.86 317.835 92.3C318.695 92.74 319.365 93.34 319.845 94.1C320.325 94.86 320.565 95.73 320.565 96.71ZM330.213 113.36C328.213 113.36 326.683 112.66 325.623 111.26C324.583 109.84 324.063 107.92 324.063 105.5C324.063 103.82 324.243 102.16 324.603 100.52C324.963 98.86 325.513 97.37 326.253 96.05C326.993 94.71 327.933 93.64 329.073 92.84C330.233 92.04 331.593 91.64 333.153 91.64C335.153 91.64 336.673 92.35 337.713 93.77C338.773 95.17 339.303 97.08 339.303 99.5C339.303 101.18 339.123 102.85 338.763 104.51C338.403 106.15 337.853 107.64 337.113 108.98C336.373 110.3 335.423 111.36 334.263 112.16C333.123 112.96 331.773 113.36 330.213 113.36ZM330.513 110.9C331.473 110.9 332.313 110.59 333.033 109.97C333.773 109.33 334.393 108.47 334.893 107.39C335.393 106.31 335.763 105.08 336.003 103.7C336.263 102.3 336.393 100.84 336.393 99.32C336.393 97.64 336.093 96.35 335.493 95.45C334.913 94.55 334.033 94.1 332.853 94.1C331.893 94.1 331.043 94.42 330.303 95.06C329.583 95.68 328.973 96.53 328.473 97.61C327.973 98.69 327.593 99.93 327.333 101.33C327.093 102.71 326.973 104.16 326.973 105.68C326.973 107.36 327.273 108.65 327.873 109.55C328.473 110.45 329.353 110.9 330.513 110.9ZM356.541 96.71C356.541 97.75 356.291 98.69 355.791 99.53C355.311 100.35 354.671 101.1 353.871 101.78C353.071 102.46 352.211 103.12 351.291 103.76C350.391 104.38 349.511 105.03 348.651 105.71C347.811 106.37 347.081 107.09 346.461 107.87C345.841 108.65 345.431 109.54 345.231 110.54H354.771L354.351 113H342.291C342.271 112.84 342.251 112.66 342.231 112.46C342.211 112.26 342.201 112.07 342.201 111.89C342.201 110.49 342.471 109.26 343.011 108.2C343.571 107.12 344.281 106.16 345.141 105.32C346.021 104.48 346.941 103.71 347.901 103.01C348.881 102.31 349.801 101.65 350.661 101.03C351.541 100.39 352.251 99.74 352.791 99.08C353.351 98.42 353.631 97.7 353.631 96.92C353.631 96.04 353.331 95.34 352.731 94.82C352.131 94.3 351.391 94.04 350.511 94.04C349.651 94.04 348.871 94.2 348.171 94.52C347.491 94.84 346.811 95.29 346.131 95.87L344.871 93.83C345.691 93.17 346.581 92.64 347.541 92.24C348.501 91.84 349.601 91.64 350.841 91.64C351.981 91.64 352.971 91.86 353.811 92.3C354.671 92.74 355.341 93.34 355.821 94.1C356.301 94.86 356.541 95.73 356.541 96.71ZM374.529 96.71C374.529 97.75 374.279 98.69 373.779 99.53C373.299 100.35 372.659 101.1 371.859 101.78C371.059 102.46 370.199 103.12 369.279 103.76C368.379 104.38 367.499 105.03 366.639 105.71C365.799 106.37 365.069 107.09 364.449 107.87C363.829 108.65 363.419 109.54 363.219 110.54H372.759L372.339 113H360.279C360.259 112.84 360.239 112.66 360.219 112.46C360.199 112.26 360.189 112.07 360.189 111.89C360.189 110.49 360.459 109.26 360.999 108.2C361.559 107.12 362.269 106.16 363.129 105.32C364.009 104.48 364.929 103.71 365.889 103.01C366.869 102.31 367.789 101.65 368.649 101.03C369.529 100.39 370.239 99.74 370.779 99.08C371.339 98.42 371.619 97.7 371.619 96.92C371.619 96.04 371.319 95.34 370.719 94.82C370.119 94.3 369.379 94.04 368.499 94.04C367.639 94.04 366.859 94.2 366.159 94.52C365.479 94.84 364.799 95.29 364.119 95.87L362.859 93.83C363.679 93.17 364.569 92.64 365.529 92.24C366.489 91.84 367.589 91.64 368.829 91.64C369.969 91.64 370.959 91.86 371.799 92.3C372.659 92.74 373.329 93.34 373.809 94.1C374.289 94.86 374.529 95.73 374.529 96.71Z" fill="white"/>
<line x1="382.5" y1="94.5" x2="439.5" y2="94.5" stroke="white" stroke-width="3" stroke-linecap="round"/>
<line x1="162.5" y1="94.5" x2="219.5" y2="94.5" stroke="white" stroke-width="3" stroke-linecap="round"/>
</svg>
